<svg xmlns="http://www.w3.org/2000/svg" style="display:none"><symbol id="icon-angle-left" viewBox="0 0 11 28"><path d="M9.797 8.5q0 .203-.156.359L3.5 15l6.141 6.141q.156.156.156.359t-.156.359l-.781.781q-.156.156-.359.156t-.359-.156L.861 15.359Q.705 15.203.705 15t.156-.359L8.142 7.36q.156-.156.359-.156t.359.156l.781.781q.156.156.156.359z"/></symbol><symbol id="icon-angle-right" viewBox="0 0 10 28"><path d="M9.297 15q0 .203-.156.359L1.86 22.64q-.156.156-.359.156t-.359-.156l-.781-.781q-.156-.156-.156-.359t.156-.359L6.502 15 .361 8.859Q.205 8.703.205 8.5t.156-.359l.781-.781q.156-.156.359-.156t.359.156l7.281 7.281q.156.156.156.359z"/></symbol><symbol id="icon-asdb"/><symbol id="icon-bars" viewBox="0 0 24 28"><path d="M24 21v2q0 .406-.297.703T23 24H1q-.406 0-.703-.297T0 23v-2q0-.406.297-.703T1 20h22q.406 0 .703.297T24 21zm0-8v2q0 .406-.297.703T23 16H1q-.406 0-.703-.297T0 15v-2q0-.406.297-.703T1 12h22q.406 0 .703.297T24 13zm0-8v2q0 .406-.297.703T23 8H1q-.406 0-.703-.297T0 7V5q0-.406.297-.703T1 4h22q.406 0 .703.297T24 5z"/></symbol><symbol id="icon-book" viewBox="0 0 16 16"><path d="M14 2v13H3.5a1.5 1.5 0 1 1 0-3H13V0H3C1.9 0 1 .9 1 2v12c0 1.1.9 2 2 2h12V2h-1z"/><path d="M3.501 13H3.5a.5.5 0 0 0 0 1H12.999v-1H3.501z"/></symbol><symbol id="icon-bubbles4" viewBox="0 0 18 16"><path d="M7.5 2a7 7 0 0 0-2.272.369 5.79 5.79 0 0 0-1.773.963C2.517 4.091 2 5.063 2 6.069c0 .562.157 1.109.467 1.623.323.537.811 1.028 1.41 1.421a2 2 0 0 1 .881 1.374c.014.094.025.188.034.282a3.62 3.62 0 0 0 .127-.122 1.999 1.999 0 0 1 1.662-.567c.303.038.611.058.918.058a7 7 0 0 0 2.272-.369 5.807 5.807 0 0 0 1.774-.963C12.483 8.047 13 7.075 13 6.069s-.517-1.978-1.455-2.737a5.753 5.753 0 0 0-1.774-.963A7 7 0 0 0 7.499 2zm0-2C11.642 0 15 2.717 15 6.069s-3.358 6.069-7.5 6.069a9.16 9.16 0 0 1-1.169-.074C4.72 13.669 2.86 13.956 1 13.999v-.393c1.004-.49 1.813-1.382 1.813-2.402 0-.142-.011-.282-.032-.419C1.085 9.672 0 7.973 0 6.068 0 2.716 3.358-.001 7.5-.001zm8.063 13.604c0 .874.567 1.639 1.438 2.059V16c-1.611-.036-3.09-.283-4.487-1.658-.33.041-.669.063-1.013.063-1.492 0-2.866-.402-3.963-1.079 2.261-.008 4.395-.732 6.013-2.042a7.346 7.346 0 0 0 1.913-2.302 6.23 6.23 0 0 0 .704-3.4C17.302 6.518 18 7.795 18 9.202c0 1.633-.94 3.089-2.41 4.043a2.361 2.361 0 0 0-.027.359z"/></symbol><symbol id="icon-camera" viewBox="0 0 16 16"><path d="M4.75 9.5a3.25 3.25 0 1 0 6.5 0 3.25 3.25 0 0 0-6.5 0zM15 4h-3.5c-.25-1-.5-2-1.5-2H6C5 2 4.75 3 4.5 4H1c-.55 0-1 .45-1 1v9c0 .55.45 1 1 1h14c.55 0 1-.45 1-1V5c0-.55-.45-1-1-1zm-7 9.938a4.438 4.438 0 1 1 0-8.876 4.438 4.438 0 0 1 0 8.876zM15 7h-2V6h2v1z"/></symbol><symbol id="icon-cog" viewBox="0 0 16 16"><path d="M14.59 9.535a3.053 3.053 0 0 1 1.127-4.164l-1.572-2.723a3.017 3.017 0 0 1-1.529.414A3.052 3.052 0 0 1 9.574 0H6.429a3.009 3.009 0 0 1-.406 1.535c-.839 1.454-2.706 1.948-4.17 1.106L.281 5.364a3 3 0 0 1 1.123 1.117 3.053 3.053 0 0 1-1.12 4.16l1.572 2.723c.448-.261.967-.41 1.522-.41A3.052 3.052 0 0 1 6.42 16h3.145a3.012 3.012 0 0 1 .406-1.519 3.053 3.053 0 0 1 4.163-1.11l1.572-2.723a3.008 3.008 0 0 1-1.116-1.113zM8 11.24a3.24 3.24 0 1 1 0-6.48 3.24 3.24 0 0 1 0 6.48z"/></symbol><symbol id="icon-earth" viewBox="0 0 16 16"><path d="M8 0a8 8 0 1 0 0 16A8 8 0 0 0 8 0zm0 15a6.96 6.96 0 0 1-2.769-.57l3.643-4.098A.503.503 0 0 0 9 10V8.5a.5.5 0 0 0-.5-.5C6.735 8 4.872 6.165 4.854 6.146A.5.5 0 0 0 4.5 6h-2a.5.5 0 0 0-.5.5v3a.5.5 0 0 0 .276.447L4 10.809v2.936A6.992 6.992 0 0 1 1 8a6.97 6.97 0 0 1 .674-3H3.5c.133 0 .26-.053.354-.146l2-2A.5.5 0 0 0 6 2.5V1.29A6.989 6.989 0 0 1 8 1c1.1 0 2.141.254 3.067.706A2.98 2.98 0 0 0 10 3.999c0 .801.312 1.555.879 2.121a2.994 2.994 0 0 0 2.268.875c.216.809.605 2.917-.131 5.818a.466.466 0 0 0-.013.082 6.979 6.979 0 0 1-5.002 2.104z"/></symbol><symbol id="icon-embed2" viewBox="0 0 20 16"><path d="M13 11.5l1.5 1.5 5-5-5-5L13 4.5 16.5 8zM7 4.5L5.5 3l-5 5 5 5L7 11.5 3.5 8zM10.958 2.352l1.085.296-3 11-1.085-.296 3-11z"/></symbol><symbol id="icon-facebook" viewBox="0 0 16 28"><path d="M14.984.187v4.125h-2.453q-1.344 0-1.813.562t-.469 1.687v2.953h4.578l-.609 4.625h-3.969v11.859H5.468V14.139H1.484V9.514h3.984V6.108q0-2.906 1.625-4.508t4.328-1.602q2.297 0 3.563.187z"/></symbol><symbol id="icon-facebook2" viewBox="0 0 16 16"><path d="M14.5 0h-13C.675 0 0 .675 0 1.5v13c0 .825.675 1.5 1.5 1.5H8V9H6V7h2V6c0-1.653 1.347-3 3-3h2v2h-2c-.55 0-1 .45-1 1v1h3l-.5 2H10v7h4.5c.825 0 1.5-.675 1.5-1.5v-13c0-.825-.675-1.5-1.5-1.5z"/></symbol><symbol id="icon-file-text2" viewBox="0 0 16 16"><path d="M14.341 3.579c-.347-.473-.831-1.027-1.362-1.558S11.894 1.006 11.421.659C10.615.068 10.224 0 10 0H2.25C1.561 0 1 .561 1 1.25v13.5c0 .689.561 1.25 1.25 1.25h11.5c.689 0 1.25-.561 1.25-1.25V5c0-.224-.068-.615-.659-1.421zm-2.07-.85c.48.48.856.912 1.134 1.271h-2.406V1.595c.359.278.792.654 1.271 1.134zM14 14.75c0 .136-.114.25-.25.25H2.25a.253.253 0 0 1-.25-.25V1.25c0-.135.115-.25.25-.25H10v3.5a.5.5 0 0 0 .5.5H14v9.75z"/><path d="M11.5 13h-7a.5.5 0 0 1 0-1h7a.5.5 0 0 1 0 1zM11.5 11h-7a.5.5 0 0 1 0-1h7a.5.5 0 0 1 0 1zM11.5 9h-7a.5.5 0 0 1 0-1h7a.5.5 0 0 1 0 1z"/></symbol><symbol id="icon-folder-open" viewBox="0 0 16 16"><path d="M13 15l3-8H3l-3 8zM2 6l-2 9V2h4.5l2 2H13v2z"/></symbol><symbol id="icon-google-plus2" viewBox="0 0 16 16"><path d="M14.5 0h-13C.675 0 0 .675 0 1.5v13c0 .825.675 1.5 1.5 1.5h13c.825 0 1.5-.675 1.5-1.5v-13c0-.825-.675-1.5-1.5-1.5zM6 12c-2.212 0-4-1.787-4-4s1.788-4 4-4c1.081 0 1.984.394 2.681 1.047L7.593 6.091c-.297-.284-.816-.616-1.594-.616-1.366 0-2.481 1.131-2.481 2.525s1.116 2.525 2.481 2.525c1.584 0 2.178-1.137 2.269-1.725H5.999V7.428h3.778c.034.2.063.4.063.663C9.84 10.378 8.309 12 5.999 12zm8-4h-1v1h-1V8h-1V7h1V6h1v1h1v1z"/></symbol><symbol id="icon-home" viewBox="0 0 16 16"><path d="M16 9.226l-8-6.21-8 6.21V6.694l8-6.21 8 6.21zM14 9v6h-4v-4H6v4H2V9l6-4.5z"/></symbol><symbol id="icon-image" viewBox="0 0 16 16"><path d="M14.998 2l.002.002v11.996l-.002.002H1.002L1 13.998V2.002L1.002 2h13.996zM15 1H1c-.55 0-1 .45-1 1v12c0 .55.45 1 1 1h14c.55 0 1-.45 1-1V2c0-.55-.45-1-1-1z"/><path d="M13 4.5a1.5 1.5 0 1 1-3.001-.001A1.5 1.5 0 0 1 13 4.5zM14 13H2v-2l3.5-6 4 5h1L14 7z"/></symbol><symbol id="icon-link" viewBox="0 0 16 16"><path d="M6.879 9.934a.81.81 0 0 1-.575-.238 3.818 3.818 0 0 1 0-5.392l3-3C10.024.584 10.982.187 12 .187s1.976.397 2.696 1.117a3.818 3.818 0 0 1 0 5.392l-1.371 1.371a.813.813 0 0 1-1.149-1.149l1.371-1.371A2.19 2.19 0 0 0 12 1.812c-.584 0-1.134.228-1.547.641l-3 3a2.19 2.19 0 0 0 0 3.094.813.813 0 0 1-.575 1.387z"/><path d="M4 15.813a3.789 3.789 0 0 1-2.696-1.117 3.818 3.818 0 0 1 0-5.392l1.371-1.371a.813.813 0 0 1 1.149 1.149l-1.371 1.371A2.19 2.19 0 0 0 4 14.188c.585 0 1.134-.228 1.547-.641l3-3a2.19 2.19 0 0 0 0-3.094.813.813 0 0 1 1.149-1.149 3.818 3.818 0 0 1 0 5.392l-3 3A3.789 3.789 0 0 1 4 15.813z"/></symbol><symbol id="icon-linkedin" viewBox="0 0 16 16"><path d="M14.5 0h-13C.675 0 0 .675 0 1.5v13c0 .825.675 1.5 1.5 1.5h13c.825 0 1.5-.675 1.5-1.5v-13c0-.825-.675-1.5-1.5-1.5zM6 13H4V6h2v7zM5 5a1 1 0 1 1 0-2 1 1 0 1 1 0 2zm8 8h-2V9a1 1 0 1 0-2 0v4H7V6h2v1.241C9.412 6.675 10.044 6 10.75 6 11.994 6 13 7.119 13 8.5V13z"/></symbol><symbol id="icon-location" viewBox="0 0 16 16"><path d="M8 0a5 5 0 0 0-5 5c0 5 5 11 5 11s5-6 5-11a5 5 0 0 0-5-5zm0 8a3 3 0 1 1 0-6 3 3 0 0 1 0 6z"/></symbol><symbol id="icon-menu3" viewBox="0 0 22 16"><path d="M0 3h14v3H0V3zm0 4h14v3H0V7zm0 4h14v3H0v-3zM15.5 7l3 3 3-3z"/></symbol><symbol id="icon-menu4" viewBox="0 0 22 16"><path d="M0 3h14v3H0V3zm0 4h14v3H0V7zm0 4h14v3H0v-3zM15.5 10l3-3 3 3z"/></symbol><symbol id="icon-meter" viewBox="0 0 16 16"><path d="M8 1a8 8 0 0 1 3.875 15h-7.75A8 8 0 0 1 8 1zm4.53 12.53A6.364 6.364 0 0 0 14.406 9H13V8h1.329a6.346 6.346 0 0 0-.665-2H12V5h1.004a6.372 6.372 0 0 0-3.005-2.089V4h-1V2.671a6.506 6.506 0 0 0-2 0V4h-1V2.911A6.384 6.384 0 0 0 2.994 5h1.004v1H2.334a6.346 6.346 0 0 0-.665 2h1.329v1H1.592c0 1.711.666 3.32 1.876 4.53.167.167.343.324.524.47h3.006l.571-8h.857l.571 8h3.006c.182-.146.357-.303.524-.47z"/></symbol><symbol id="icon-newspaper" viewBox="0 0 16 16"><path d="M14 4V2H0v11a1 1 0 0 0 1 1h13.5a1.5 1.5 0 0 0 1.5-1.5V4h-2zm-1 9H1V3h12v10zM2 5h10v1H2zm6 2h4v1H8zm0 2h4v1H8zm0 2h3v1H8zM2 7h5v5H2z"/></symbol><symbol id="icon-profile" viewBox="0 0 16 16"><path d="M13.5 0h-12C.675 0 0 .675 0 1.5v13c0 .825.675 1.5 1.5 1.5h12c.825 0 1.5-.675 1.5-1.5v-13c0-.825-.675-1.5-1.5-1.5zM13 14H2V2h11v12zM4 9h7v1H4zm0 2h7v1H4zm1-6.5a1.5 1.5 0 1 1 3.001.001A1.5 1.5 0 0 1 5 4.5zM7.5 6h-2C4.675 6 4 6.45 4 7v1h5V7c0-.55-.675-1-1.5-1z"/></symbol><symbol id="icon-rss2" viewBox="0 0 16 16"><path d="M14.5 0h-13C.675 0 0 .675 0 1.5v13c0 .825.675 1.5 1.5 1.5h13c.825 0 1.5-.675 1.5-1.5v-13c0-.825-.675-1.5-1.5-1.5zM4.359 12.988c-.75 0-1.359-.603-1.359-1.353a1.36 1.36 0 0 1 2.718 0c0 .75-.609 1.353-1.359 1.353zM7.772 13a4.753 4.753 0 0 0-1.397-3.381A4.74 4.74 0 0 0 3 8.219V6.263c3.713 0 6.738 3.022 6.738 6.737H7.772zm3.472 0c0-4.547-3.697-8.25-8.241-8.25V2.794c5.625 0 10.203 4.581 10.203 10.206h-1.963z"/></symbol><symbol id="icon-share2" viewBox="0 0 16 16"><path d="M13.5 11c-.706 0-1.342.293-1.797.763L4.969 8.396a2.46 2.46 0 0 0 0-.792l6.734-3.367a2.5 2.5 0 1 0-.672-1.341L4.297 6.263a2.5 2.5 0 1 0 0 3.474l6.734 3.367A2.5 2.5 0 1 0 13.5 11z"/></symbol><symbol id="icon-sphere" viewBox="0 0 16 16"><path d="M7.5 1a7.5 7.5 0 1 0 0 15 7.5 7.5 0 0 0 0-15zm4.244 10c.134-.632.219-1.303.246-2h1.991a6.443 6.443 0 0 1-.479 2h-1.758zM3.256 6a11.876 11.876 0 0 0-.246 2H1.019a6.443 6.443 0 0 1 .479-2h1.758zm7.463 0c.15.64.241 1.31.27 2H8V6h2.719zM8 5V2.073c.228.066.454.178.675.334.415.293.813.744 1.149 1.304.233.388.434.819.601 1.289H7.999zM5.176 3.711c.336-.561.734-1.012 1.149-1.304.222-.156.447-.268.675-.334V5H4.574a7.29 7.29 0 0 1 .601-1.289zM7 6v2H4.011c.029-.69.12-1.36.27-2H7zm-5.502 5a6.443 6.443 0 0 1-.479-2H3.01c.028.697.112 1.368.246 2H1.498zm2.513-2H7v2H4.281c-.15-.64-.241-1.31-.27-2zM7 12v2.927a2.27 2.27 0 0 1-.675-.334c-.415-.293-.813-.744-1.149-1.304A7.221 7.221 0 0 1 4.574 12H7zm2.825 1.289c-.336.561-.734 1.012-1.149 1.304a2.282 2.282 0 0 1-.675.334V12h2.426c-.168.47-.369.901-.602 1.289zM8 11V9h2.989c-.029.69-.12 1.36-.27 2H8zm3.99-3a11.98 11.98 0 0 0-.246-2h1.758c.267.639.427 1.309.479 2H11.99zm.989-3h-1.498c-.291-.918-.693-1.723-1.177-2.366a6.462 6.462 0 0 1 1.792 1.27c.336.336.631.702.883 1.096zM2.904 3.904a6.492 6.492 0 0 1 1.792-1.27C4.213 3.277 3.81 4.082 3.519 5H2.021c.252-.394.547-.761.883-1.096zM2.021 12h1.498c.291.918.693 1.723 1.177 2.366a6.462 6.462 0 0 1-1.792-1.27A6.505 6.505 0 0 1 2.021 12zm10.075 1.096a6.492 6.492 0 0 1-1.792 1.27c.483-.643.886-1.448 1.177-2.366h1.498a6.466 6.466 0 0 1-.883 1.096z"/></symbol><symbol id="icon-stats-bars" viewBox="0 0 16 16"><path d="M0 13h16v2H0zm2-4h2v3H2zm3-4h2v7H5zm3 3h2v4H8zm3-6h2v10h-2z"/></symbol><symbol id="icon-th" viewBox="0 0 28 28"><path d="M8 19.5v3q0 .625-.438 1.062T6.5 24h-5q-.625 0-1.062-.438T0 22.5v-3q0-.625.438-1.062T1.5 18h5q.625 0 1.062.438T8 19.5zm0-8v3q0 .625-.438 1.062T6.5 16h-5q-.625 0-1.062-.438T0 14.5v-3q0-.625.438-1.062T1.5 10h5q.625 0 1.062.438T8 11.5zm10 8v3q0 .625-.438 1.062T16.5 24h-5q-.625 0-1.062-.438T10 22.5v-3q0-.625.438-1.062T11.5 18h5q.625 0 1.062.438T18 19.5zM8 3.5v3q0 .625-.438 1.062T6.5 8h-5Q.875 8 .438 7.562T0 6.5v-3q0-.625.438-1.062T1.5 2h5q.625 0 1.062.438T8 3.5zm10 8v3q0 .625-.438 1.062T16.5 16h-5q-.625 0-1.062-.438T10 14.5v-3q0-.625.438-1.062T11.5 10h5q.625 0 1.062.438T18 11.5zm10 8v3q0 .625-.438 1.062T26.5 24h-5q-.625 0-1.062-.438T20 22.5v-3q0-.625.438-1.062T21.5 18h5q.625 0 1.062.438T28 19.5zm-10-16v3q0 .625-.438 1.062T16.5 8h-5q-.625 0-1.062-.438T10 6.5v-3q0-.625.438-1.062T11.5 2h5q.625 0 1.062.438T18 3.5zm10 8v3q0 .625-.438 1.062T26.5 16h-5q-.625 0-1.062-.438T20 14.5v-3q0-.625.438-1.062T21.5 10h5q.625 0 1.062.438T28 11.5zm0-8v3q0 .625-.438 1.062T26.5 8h-5q-.625 0-1.062-.438T20 6.5v-3q0-.625.438-1.062T21.5 2h5q.625 0 1.062.438T28 3.5z"/></symbol><symbol id="icon-twitter" viewBox="0 0 16 16"><path d="M16 3.538a6.461 6.461 0 0 1-1.884.516 3.301 3.301 0 0 0 1.444-1.816 6.607 6.607 0 0 1-2.084.797 3.28 3.28 0 0 0-2.397-1.034 3.28 3.28 0 0 0-3.197 4.028 9.321 9.321 0 0 1-6.766-3.431 3.284 3.284 0 0 0 1.015 4.381A3.301 3.301 0 0 1 .643 6.57v.041A3.283 3.283 0 0 0 3.277 9.83a3.291 3.291 0 0 1-1.485.057 3.293 3.293 0 0 0 3.066 2.281 6.586 6.586 0 0 1-4.862 1.359 9.286 9.286 0 0 0 5.034 1.475c6.037 0 9.341-5.003 9.341-9.341 0-.144-.003-.284-.009-.425a6.59 6.59 0 0 0 1.637-1.697z"/></symbol><symbol id="icon-user-plus" viewBox="0 0 16 16"><path d="M6 11.5a5.508 5.508 0 0 1 3.594-5.159A4.574 4.574 0 0 0 10 4.5C10 2.015 10 0 7 0S4 2.015 4 4.5c0 1.548.898 3.095 2 3.716v.825C2.608 9.318 0 10.985 0 13h6.208A5.5 5.5 0 0 1 6 11.5z"/><path d="M11.5 7a4.5 4.5 0 1 0 0 9 4.5 4.5 0 0 0 0-9zm2.5 5h-2v2h-1v-2H9v-1h2V9h1v2h2v1z"/></symbol><symbol id="icon-user-tie" viewBox="0 0 16 16"><path d="M5 3a3 3 0 1 1 6 0 3 3 0 0 1-6 0zm7.001 4h-.553l-3.111 6.316L9.5 7.5 8 6 6.5 7.5l1.163 5.816L4.552 7h-.554c-1.999 0-1.999 1.344-1.999 3v5h12v-5c0-1.656 0-3-1.999-3z"/></symbol><symbol id="icon-user" viewBox="0 0 16 16"><path d="M9 11.041v-.825c1.102-.621 2-2.168 2-3.716C11 4.015 11 2 8 2S5 4.015 5 6.5c0 1.548.898 3.095 2 3.716v.825c-3.392.277-6 1.944-6 3.959h14c0-2.015-2.608-3.682-6-3.959z"/></symbol><symbol id="icon-users" viewBox="0 0 18 16"><path d="M12 12.041v-.825c1.102-.621 2-2.168 2-3.716C14 5.015 14 3 11 3S8 5.015 8 7.5c0 1.548.898 3.095 2 3.716v.825c-3.392.277-6 1.944-6 3.959h14c0-2.015-2.608-3.682-6-3.959z"/><path d="M5.112 12.427c.864-.565 1.939-.994 3.122-1.256a5.667 5.667 0 0 1-.633-.922 5.726 5.726 0 0 1-.726-2.748c0-1.344 0-2.614.478-3.653.464-1.008 1.299-1.633 2.488-1.867C9.577.786 8.873.001 7 .001c-3 0-3 2.015-3 4.5 0 1.548.898 3.095 2 3.716v.825c-3.392.277-6 1.944-6 3.959h4.359c.227-.202.478-.393.753-.573z"/></symbol><symbol id="icon-vk" viewBox="0 0 16 16"><path d="M14.5 0h-13C.675 0 0 .675 0 1.5v13c0 .825.675 1.5 1.5 1.5h13c.825 0 1.5-.675 1.5-1.5v-13c0-.825-.675-1.5-1.5-1.5zm-1.541 11.2l-1.463.022s-.316.063-.728-.222c-.547-.375-1.063-1.353-1.466-1.225-.406.128-.394 1.006-.394 1.006s.003.188-.091.287c-.1.109-.3.131-.3.131h-.653s-1.444.088-2.716-1.238C3.76 8.517 2.536 5.652 2.536 5.652s-.072-.188.006-.278c.087-.103.322-.109.322-.109l1.566-.009s.147.025.253.103c.088.063.134.184.134.184s.253.641.588 1.219c.653 1.128.959 1.375 1.181 1.256.322-.175.225-1.597.225-1.597s.006-.516-.162-.744c-.131-.178-.378-.231-.484-.244-.088-.013.056-.216.244-.309.281-.138.778-.147 1.366-.141.456.003.591.034.769.075.541.131.356.634.356 1.841 0 .388-.069.931.209 1.109.119.078.412.012 1.147-1.234.347-.591.609-1.284.609-1.284s.056-.125.144-.178c.091-.053.213-.037.213-.037l1.647-.009s.494-.059.575.166c.084.234-.184.781-.856 1.678-1.103 1.472-1.228 1.334-.309 2.184.875.813 1.056 1.209 1.088 1.259.356.6-.406.647-.406.647z"/></symbol><symbol id="icon-whatsapp" viewBox="0 0 16 16"><path d="M13.641 2.325A7.869 7.869 0 0 0 8.032 0C3.663 0 .107 3.556.107 7.928c0 1.397.366 2.763 1.059 3.963L.041 16l4.203-1.103a7.929 7.929 0 0 0 3.787.966h.003c4.369 0 7.928-3.556 7.928-7.928a7.887 7.887 0 0 0-2.322-5.609zm-5.607 12.2a6.583 6.583 0 0 1-3.356-.919l-.241-.144-2.494.653.666-2.431-.156-.25a6.537 6.537 0 0 1-1.009-3.506 6.599 6.599 0 0 1 6.594-6.591c1.759 0 3.416.688 4.659 1.931a6.554 6.554 0 0 1 1.928 4.662c-.003 3.637-2.959 6.594-6.591 6.594zm3.613-4.937c-.197-.1-1.172-.578-1.353-.644s-.313-.1-.447.1c-.131.197-.512.644-.628.778-.116.131-.231.15-.428.05s-.838-.309-1.594-.984c-.588-.525-.987-1.175-1.103-1.372s-.013-.306.088-.403c.091-.088.197-.231.297-.347s.131-.197.197-.331c.066-.131.034-.247-.016-.347s-.447-1.075-.609-1.472c-.159-.388-.325-.334-.447-.341-.116-.006-.247-.006-.378-.006s-.347.05-.528.247c-.181.197-.694.678-.694 1.653s.709 1.916.809 2.05c.1.131 1.397 2.134 3.384 2.991.472.203.841.325 1.128.419.475.15.906.128 1.247.078.381-.056 1.172-.478 1.338-.941s.166-.859.116-.941c-.047-.088-.178-.137-.378-.238z"/></symbol><symbol id="icon-zoom-in" viewBox="0 0 16 16"><path d="M15.504 13.616l-3.79-3.223c-.392-.353-.811-.514-1.149-.499a6 6 0 1 0-.672.672c-.016.338.146.757.499 1.149l3.223 3.79c.552.613 1.453.665 2.003.115s.498-1.452-.115-2.003zM6 10a4 4 0 1 1 0-8 4 4 0 0 1 0 8zm1-7H5v2H3v2h2v2h2V7h2V5H7z"/></symbol></svg>