<svg style="position: absolute; width: 0; height: 0;" width="0" height="0" version="1.1" xmlns="http://www.w3.org/2000/svg" xmlns:xlink="http://www.w3.org/1999/xlink">
<defs>
<symbol id="icon-th" viewBox="0 0 28 28">
<title>th</title>
<path class="path1" d="M8 19.5v3q0 0.625-0.438 1.062t-1.062 0.438h-5q-0.625 0-1.062-0.438t-0.438-1.062v-3q0-0.625 0.438-1.062t1.062-0.438h5q0.625 0 1.062 0.438t0.438 1.062zM8 11.5v3q0 0.625-0.438 1.062t-1.062 0.438h-5q-0.625 0-1.062-0.438t-0.438-1.062v-3q0-0.625 0.438-1.062t1.062-0.438h5q0.625 0 1.062 0.438t0.438 1.062zM18 19.5v3q0 0.625-0.438 1.062t-1.062 0.438h-5q-0.625 0-1.062-0.438t-0.438-1.062v-3q0-0.625 0.438-1.062t1.062-0.438h5q0.625 0 1.062 0.438t0.438 1.062zM8 3.5v3q0 0.625-0.438 1.062t-1.062 0.438h-5q-0.625 0-1.062-0.438t-0.438-1.062v-3q0-0.625 0.438-1.062t1.062-0.438h5q0.625 0 1.062 0.438t0.438 1.062zM18 11.5v3q0 0.625-0.438 1.062t-1.062 0.438h-5q-0.625 0-1.062-0.438t-0.438-1.062v-3q0-0.625 0.438-1.062t1.062-0.438h5q0.625 0 1.062 0.438t0.438 1.062zM28 19.5v3q0 0.625-0.438 1.062t-1.062 0.438h-5q-0.625 0-1.062-0.438t-0.438-1.062v-3q0-0.625 0.438-1.062t1.062-0.438h5q0.625 0 1.062 0.438t0.438 1.062zM18 3.5v3q0 0.625-0.438 1.062t-1.062 0.438h-5q-0.625 0-1.062-0.438t-0.438-1.062v-3q0-0.625 0.438-1.062t1.062-0.438h5q0.625 0 1.062 0.438t0.438 1.062zM28 11.5v3q0 0.625-0.438 1.062t-1.062 0.438h-5q-0.625 0-1.062-0.438t-0.438-1.062v-3q0-0.625 0.438-1.062t1.062-0.438h5q0.625 0 1.062 0.438t0.438 1.062zM28 3.5v3q0 0.625-0.438 1.062t-1.062 0.438h-5q-0.625 0-1.062-0.438t-0.438-1.062v-3q0-0.625 0.438-1.062t1.062-0.438h5q0.625 0 1.062 0.438t0.438 1.062z"></path>
</symbol>
<symbol id="icon-angle-left" viewBox="0 0 11 28">
<title>angle-left</title>
<path class="path1" d="M9.797 8.5q0 0.203-0.156 0.359l-6.141 6.141 6.141 6.141q0.156 0.156 0.156 0.359t-0.156 0.359l-0.781 0.781q-0.156 0.156-0.359 0.156t-0.359-0.156l-7.281-7.281q-0.156-0.156-0.156-0.359t0.156-0.359l7.281-7.281q0.156-0.156 0.359-0.156t0.359 0.156l0.781 0.781q0.156 0.156 0.156 0.359z"></path>
</symbol>
<symbol id="icon-angle-right" viewBox="0 0 10 28">
<title>angle-right</title>
<path class="path1" d="M9.297 15q0 0.203-0.156 0.359l-7.281 7.281q-0.156 0.156-0.359 0.156t-0.359-0.156l-0.781-0.781q-0.156-0.156-0.156-0.359t0.156-0.359l6.141-6.141-6.141-6.141q-0.156-0.156-0.156-0.359t0.156-0.359l0.781-0.781q0.156-0.156 0.359-0.156t0.359 0.156l7.281 7.281q0.156 0.156 0.156 0.359z"></path>
</symbol>
<symbol id="icon-home" viewBox="0 0 16 16">
<title>home</title>
<path class="path1" d="M16 9.226l-8-6.21-8 6.21v-2.532l8-6.21 8 6.21zM14 9v6h-4v-4h-4v4h-4v-6l6-4.5z"></path>
</symbol>
<symbol id="icon-newspaper" viewBox="0 0 16 16">
<title>newspaper</title>
<path class="path1" d="M14 4v-2h-14v11c0 0.552 0.448 1 1 1h13.5c0.828 0 1.5-0.672 1.5-1.5v-8.5h-2zM13 13h-12v-10h12v10zM2 5h10v1h-10zM8 7h4v1h-4zM8 9h4v1h-4zM8 11h3v1h-3zM2 7h5v5h-5z"></path>
</symbol>
<symbol id="icon-image" viewBox="0 0 16 16">
<title>image</title>
<path class="path1" d="M14.998 2c0.001 0.001 0.001 0.001 0.002 0.002v11.996c-0.001 0.001-0.001 0.001-0.002 0.002h-13.996c-0.001-0.001-0.001-0.001-0.002-0.002v-11.996c0.001-0.001 0.001-0.001 0.002-0.002h13.996zM15 1h-14c-0.55 0-1 0.45-1 1v12c0 0.55 0.45 1 1 1h14c0.55 0 1-0.45 1-1v-12c0-0.55-0.45-1-1-1v0z"></path>
<path class="path2" d="M13 4.5c0 0.828-0.672 1.5-1.5 1.5s-1.5-0.672-1.5-1.5 0.672-1.5 1.5-1.5 1.5 0.672 1.5 1.5z"></path>
<path class="path3" d="M14 13h-12v-2l3.5-6 4 5h1l3.5-3z"></path>
</symbol>
<symbol id="icon-camera" viewBox="0 0 16 16">
<title>camera</title>
<path class="path1" d="M4.75 9.5c0 1.795 1.455 3.25 3.25 3.25s3.25-1.455 3.25-3.25-1.455-3.25-3.25-3.25-3.25 1.455-3.25 3.25zM15 4h-3.5c-0.25-1-0.5-2-1.5-2h-4c-1 0-1.25 1-1.5 2h-3.5c-0.55 0-1 0.45-1 1v9c0 0.55 0.45 1 1 1h14c0.55 0 1-0.45 1-1v-9c0-0.55-0.45-1-1-1zM8 13.938c-2.451 0-4.438-1.987-4.438-4.438s1.987-4.438 4.438-4.438c2.451 0 4.438 1.987 4.438 4.438s-1.987 4.438-4.438 4.438zM15 7h-2v-1h2v1z"></path>
</symbol>
<symbol id="icon-book" viewBox="0 0 16 16">
<title>book</title>
<path class="path1" d="M14 2v13h-10.5c-0.829 0-1.5-0.672-1.5-1.5s0.671-1.5 1.5-1.5h9.5v-12h-10c-1.1 0-2 0.9-2 2v12c0 1.1 0.9 2 2 2h12v-14h-1z"></path>
<path class="path2" d="M3.501 13v0c-0 0-0.001 0-0.001 0-0.276 0-0.5 0.224-0.5 0.5s0.224 0.5 0.5 0.5c0 0 0.001-0 0.001-0v0h9.498v-1h-9.498z"></path>
</symbol>
<symbol id="icon-profile" viewBox="0 0 16 16">
<title>profile</title>
<path class="path1" d="M13.5 0h-12c-0.825 0-1.5 0.675-1.5 1.5v13c0 0.825 0.675 1.5 1.5 1.5h12c0.825 0 1.5-0.675 1.5-1.5v-13c0-0.825-0.675-1.5-1.5-1.5zM13 14h-11v-12h11v12zM4 9h7v1h-7zM4 11h7v1h-7zM5 4.5c0-0.828 0.672-1.5 1.5-1.5s1.5 0.672 1.5 1.5c0 0.828-0.672 1.5-1.5 1.5s-1.5-0.672-1.5-1.5zM7.5 6h-2c-0.825 0-1.5 0.45-1.5 1v1h5v-1c0-0.55-0.675-1-1.5-1z"></path>
</symbol>
<symbol id="icon-file-text2" viewBox="0 0 16 16">
<title>file-text2</title>
<path class="path1" d="M14.341 3.579c-0.347-0.473-0.831-1.027-1.362-1.558s-1.085-1.015-1.558-1.362c-0.806-0.591-1.197-0.659-1.421-0.659h-7.75c-0.689 0-1.25 0.561-1.25 1.25v13.5c0 0.689 0.561 1.25 1.25 1.25h11.5c0.689 0 1.25-0.561 1.25-1.25v-9.75c0-0.224-0.068-0.615-0.659-1.421zM12.271 2.729c0.48 0.48 0.856 0.912 1.134 1.271h-2.406v-2.405c0.359 0.278 0.792 0.654 1.271 1.134zM14 14.75c0 0.136-0.114 0.25-0.25 0.25h-11.5c-0.135 0-0.25-0.114-0.25-0.25v-13.5c0-0.135 0.115-0.25 0.25-0.25 0 0 7.749-0 7.75 0v3.5c0 0.276 0.224 0.5 0.5 0.5h3.5v9.75z"></path>
<path class="path2" d="M11.5 13h-7c-0.276 0-0.5-0.224-0.5-0.5s0.224-0.5 0.5-0.5h7c0.276 0 0.5 0.224 0.5 0.5s-0.224 0.5-0.5 0.5z"></path>
<path class="path3" d="M11.5 11h-7c-0.276 0-0.5-0.224-0.5-0.5s0.224-0.5 0.5-0.5h7c0.276 0 0.5 0.224 0.5 0.5s-0.224 0.5-0.5 0.5z"></path>
<path class="path4" d="M11.5 9h-7c-0.276 0-0.5-0.224-0.5-0.5s0.224-0.5 0.5-0.5h7c0.276 0 0.5 0.224 0.5 0.5s-0.224 0.5-0.5 0.5z"></path>
</symbol>
<symbol id="icon-folder-open" viewBox="0 0 16 16">
<title>folder-open</title>
<path class="path1" d="M13 15l3-8h-13l-3 8zM2 6l-2 9v-13h4.5l2 2h6.5v2z"></path>
</symbol>
<symbol id="icon-location" viewBox="0 0 16 16">
<title>location</title>
<path class="path1" d="M8 0c-2.761 0-5 2.239-5 5 0 5 5 11 5 11s5-6 5-11c0-2.761-2.239-5-5-5zM8 8c-1.657 0-3-1.343-3-3s1.343-3 3-3 3 1.343 3 3-1.343 3-3 3z"></path>
</symbol>
<symbol id="icon-bubbles4" viewBox="0 0 18 16">
<title>bubbles4</title>
<path class="path1" d="M7.5 2c-0.792 0-1.556 0.124-2.272 0.369-0.671 0.23-1.267 0.554-1.773 0.963-0.938 0.759-1.455 1.731-1.455 2.737 0 0.562 0.157 1.109 0.467 1.623 0.323 0.537 0.811 1.028 1.41 1.421 0.476 0.312 0.796 0.812 0.881 1.374 0.014 0.094 0.025 0.188 0.034 0.282 0.043-0.039 0.085-0.080 0.127-0.122 0.377-0.376 0.886-0.583 1.411-0.583 0.084 0 0.167 0.005 0.251 0.016 0.303 0.038 0.611 0.058 0.918 0.058 0.792 0 1.556-0.124 2.272-0.369 0.671-0.23 1.267-0.554 1.774-0.963 0.938-0.759 1.455-1.731 1.455-2.737s-0.517-1.978-1.455-2.737c-0.506-0.41-1.103-0.734-1.774-0.963-0.716-0.245-1.48-0.369-2.272-0.369zM7.5 0v0c4.142 0 7.5 2.717 7.5 6.069s-3.358 6.069-7.5 6.069c-0.398 0-0.788-0.025-1.169-0.074-1.611 1.605-3.471 1.892-5.331 1.935v-0.393c1.004-0.49 1.813-1.382 1.813-2.402 0-0.142-0.011-0.282-0.032-0.419-1.696-1.113-2.781-2.812-2.781-4.717 0-3.352 3.358-6.069 7.5-6.069zM15.563 13.604c0 0.874 0.567 1.639 1.438 2.059v0.337c-1.611-0.036-3.090-0.283-4.487-1.658-0.33 0.041-0.669 0.063-1.013 0.063-1.492 0-2.866-0.402-3.963-1.079 2.261-0.008 4.395-0.732 6.013-2.042 0.816-0.66 1.459-1.435 1.913-2.302 0.481-0.92 0.724-1.9 0.724-2.913 0-0.163-0.007-0.326-0.020-0.487 1.134 0.936 1.832 2.213 1.832 3.62 0 1.633-0.94 3.089-2.41 4.043-0.018 0.117-0.027 0.237-0.027 0.359z"></path>
</symbol>
<symbol id="icon-user" viewBox="0 0 16 16">
<title>user</title>
<path class="path1" d="M9 11.041v-0.825c1.102-0.621 2-2.168 2-3.716 0-2.485 0-4.5-3-4.5s-3 2.015-3 4.5c0 1.548 0.898 3.095 2 3.716v0.825c-3.392 0.277-6 1.944-6 3.959h14c0-2.015-2.608-3.682-6-3.959z"></path>
</symbol>
<symbol id="icon-users" viewBox="0 0 18 16">
<title>users</title>
<path class="path1" d="M12 12.041v-0.825c1.102-0.621 2-2.168 2-3.716 0-2.485 0-4.5-3-4.5s-3 2.015-3 4.5c0 1.548 0.898 3.095 2 3.716v0.825c-3.392 0.277-6 1.944-6 3.959h14c0-2.015-2.608-3.682-6-3.959z"></path>
<path class="path2" d="M5.112 12.427c0.864-0.565 1.939-0.994 3.122-1.256-0.235-0.278-0.449-0.588-0.633-0.922-0.475-0.863-0.726-1.813-0.726-2.748 0-1.344 0-2.614 0.478-3.653 0.464-1.008 1.299-1.633 2.488-1.867-0.264-1.195-0.968-1.98-2.841-1.98-3 0-3 2.015-3 4.5 0 1.548 0.898 3.095 2 3.716v0.825c-3.392 0.277-6 1.944-6 3.959h4.359c0.227-0.202 0.478-0.393 0.753-0.573z"></path>
</symbol>
<symbol id="icon-user-plus" viewBox="0 0 16 16">
<title>user-plus</title>
<path class="path1" d="M6 11.5c0-2.363 1.498-4.383 3.594-5.159 0.254-0.571 0.406-1.206 0.406-1.841 0-2.485 0-4.5-3-4.5s-3 2.015-3 4.5c0 1.548 0.898 3.095 2 3.716v0.825c-3.392 0.277-6 1.944-6 3.959h6.208c-0.135-0.477-0.208-0.98-0.208-1.5z"></path>
<path class="path2" d="M11.5 7c-2.485 0-4.5 2.015-4.5 4.5s2.015 4.5 4.5 4.5c2.485 0 4.5-2.015 4.5-4.5s-2.015-4.5-4.5-4.5zM14 12h-2v2h-1v-2h-2v-1h2v-2h1v2h2v1z"></path>
</symbol>
<symbol id="icon-user-tie" viewBox="0 0 16 16">
<title>user-tie</title>
<path class="path1" d="M5 3c0-1.657 1.343-3 3-3s3 1.343 3 3c0 1.657-1.343 3-3 3s-3-1.343-3-3zM12.001 7h-0.553l-3.111 6.316 1.163-5.816-1.5-1.5-1.5 1.5 1.163 5.816-3.111-6.316h-0.554c-1.999 0-1.999 1.344-1.999 3v5h12v-5c0-1.656 0-3-1.999-3z"></path>
</symbol>
<symbol id="icon-zoom-in" viewBox="0 0 16 16">
<title>zoom-in</title>
<path class="path1" d="M15.504 13.616l-3.79-3.223c-0.392-0.353-0.811-0.514-1.149-0.499 0.895-1.048 1.435-2.407 1.435-3.893 0-3.314-2.686-6-6-6s-6 2.686-6 6 2.686 6 6 6c1.486 0 2.845-0.54 3.893-1.435-0.016 0.338 0.146 0.757 0.499 1.149l3.223 3.79c0.552 0.613 1.453 0.665 2.003 0.115s0.498-1.452-0.115-2.003zM6 10c-2.209 0-4-1.791-4-4s1.791-4 4-4 4 1.791 4 4-1.791 4-4 4zM7 3h-2v2h-2v2h2v2h2v-2h2v-2h-2z"></path>
</symbol>
<symbol id="icon-cog" viewBox="0 0 16 16">
<title>cog</title>
<path class="path1" d="M14.59 9.535c-0.839-1.454-0.335-3.317 1.127-4.164l-1.572-2.723c-0.449 0.263-0.972 0.414-1.529 0.414-1.68 0-3.042-1.371-3.042-3.062h-3.145c0.004 0.522-0.126 1.051-0.406 1.535-0.839 1.454-2.706 1.948-4.17 1.106l-1.572 2.723c0.453 0.257 0.845 0.634 1.123 1.117 0.838 1.452 0.336 3.311-1.12 4.16l1.572 2.723c0.448-0.261 0.967-0.41 1.522-0.41 1.675 0 3.033 1.362 3.042 3.046h3.145c-0.001-0.517 0.129-1.040 0.406-1.519 0.838-1.452 2.7-1.947 4.163-1.11l1.572-2.723c-0.45-0.257-0.839-0.633-1.116-1.113zM8 11.24c-1.789 0-3.24-1.45-3.24-3.24s1.45-3.24 3.24-3.24c1.789 0 3.24 1.45 3.24 3.24s-1.45 3.24-3.24 3.24z"></path>
</symbol>
<symbol id="icon-stats-bars" viewBox="0 0 16 16">
<title>stats-bars</title>
<path class="path1" d="M0 13h16v2h-16zM2 9h2v3h-2zM5 5h2v7h-2zM8 8h2v4h-2zM11 2h2v10h-2z"></path>
</symbol>
<symbol id="icon-leaf" viewBox="0 0 16 16">
<title>leaf</title>
<path class="path1" d="M15.802 2.102c-1.73-1.311-4.393-2.094-7.124-2.094-3.377 0-6.129 1.179-7.549 3.235-0.667 0.965-1.036 2.109-1.097 3.398-0.054 1.148 0.139 2.418 0.573 3.784 1.482-4.444 5.622-7.923 10.395-7.923 0 0-4.466 1.175-7.274 4.816-0.002 0.002-0.039 0.048-0.103 0.136-0.564 0.754-1.055 1.612-1.423 2.583-0.623 1.482-1.2 3.515-1.2 5.965h2c0 0-0.304-1.91 0.224-4.106 0.873 0.118 1.654 0.177 2.357 0.177 1.839 0 3.146-0.398 4.115-1.252 0.868-0.765 1.347-1.794 1.854-2.882 0.774-1.663 1.651-3.547 4.198-5.002 0.146-0.083 0.24-0.234 0.251-0.402s-0.063-0.329-0.197-0.431z"></path>
</symbol>
<symbol id="icon-meter" viewBox="0 0 16 16">
<title>meter</title>
<path class="path1" d="M8 1c4.418 0 8 3.582 8 8 0 3.012-1.665 5.635-4.125 7h-7.75c-2.46-1.365-4.125-3.988-4.125-7 0-4.418 3.582-8 8-8zM12.53 13.53c1.21-1.21 1.876-2.819 1.876-4.53h-1.406v-1h1.329c-0.11-0.703-0.334-1.377-0.665-2h-1.664v-1h1.004c-0.147-0.184-0.306-0.361-0.475-0.53-0.722-0.722-1.587-1.251-2.53-1.559v1.089h-1v-1.329c-0.328-0.051-0.662-0.078-1-0.078s-0.672 0.026-1 0.078v1.329h-1v-1.089c-0.943 0.309-1.808 0.837-2.53 1.559-0.169 0.169-0.327 0.346-0.475 0.53h1.004v1h-1.664c-0.331 0.623-0.555 1.297-0.665 2h1.329v1h-1.406c0 1.711 0.666 3.32 1.876 4.53 0.167 0.167 0.343 0.324 0.524 0.47h3.006l0.571-8h0.857l0.571 8h3.006c0.182-0.146 0.357-0.303 0.524-0.47z"></path>
</symbol>
<symbol id="icon-menu3" viewBox="0 0 22 16">
<title>menu3</title>
<path class="path1" d="M0 3h14v3h-14v-3zM0 7h14v3h-14v-3zM0 11h14v3h-14v-3z"></path>
<path class="path2" d="M15.5 7l3 3 3-3z"></path>
</symbol>
<symbol id="icon-menu4" viewBox="0 0 22 16">
<title>menu4</title>
<path class="path1" d="M0 3h14v3h-14v-3zM0 7h14v3h-14v-3zM0 11h14v3h-14v-3z"></path>
<path class="path2" d="M15.5 10l3-3 3 3z"></path>
</symbol>
<symbol id="icon-sphere" viewBox="0 0 16 16">
<title>sphere</title>
<path class="path1" d="M7.5 1c-4.142 0-7.5 3.358-7.5 7.5s3.358 7.5 7.5 7.5c4.142 0 7.5-3.358 7.5-7.5s-3.358-7.5-7.5-7.5zM11.744 11c0.134-0.632 0.219-1.303 0.246-2h1.991c-0.052 0.691-0.213 1.361-0.479 2h-1.758zM3.256 6c-0.134 0.632-0.219 1.303-0.246 2h-1.991c0.052-0.691 0.213-1.361 0.479-2h1.758zM10.719 6c0.15 0.64 0.241 1.31 0.27 2h-2.989v-2h2.719zM8 5v-2.927c0.228 0.066 0.454 0.178 0.675 0.334 0.415 0.293 0.813 0.744 1.149 1.304 0.233 0.388 0.434 0.819 0.601 1.289h-2.426zM5.176 3.711c0.336-0.561 0.734-1.012 1.149-1.304 0.222-0.156 0.447-0.268 0.675-0.334v2.927h-2.426c0.168-0.47 0.369-0.901 0.601-1.289zM7 6v2h-2.989c0.029-0.69 0.12-1.36 0.27-2h2.719zM1.498 11c-0.266-0.639-0.427-1.309-0.479-2h1.991c0.028 0.697 0.112 1.368 0.246 2h-1.758zM4.011 9h2.989v2h-2.719c-0.15-0.64-0.241-1.31-0.27-2zM7 12v2.927c-0.228-0.066-0.454-0.178-0.675-0.334-0.415-0.293-0.813-0.744-1.149-1.304-0.233-0.388-0.434-0.819-0.602-1.289h2.426zM9.825 13.289c-0.336 0.561-0.734 1.012-1.149 1.304-0.222 0.156-0.447 0.268-0.675 0.334v-2.927h2.426c-0.168 0.47-0.369 0.901-0.602 1.289zM8 11v-2h2.989c-0.029 0.69-0.12 1.36-0.27 2h-2.719zM11.99 8c-0.028-0.697-0.112-1.368-0.246-2h1.758c0.267 0.639 0.427 1.309 0.479 2h-1.991zM12.979 5h-1.498c-0.291-0.918-0.693-1.723-1.177-2.366 0.665 0.318 1.267 0.744 1.792 1.27 0.336 0.336 0.631 0.702 0.883 1.096zM2.904 3.904c0.526-0.526 1.128-0.952 1.792-1.27-0.483 0.643-0.886 1.448-1.177 2.366h-1.498c0.252-0.394 0.547-0.761 0.883-1.096zM2.021 12h1.498c0.291 0.918 0.693 1.723 1.177 2.366-0.665-0.318-1.267-0.744-1.792-1.27-0.336-0.336-0.631-0.702-0.883-1.096zM12.096 13.096c-0.526 0.526-1.128 0.952-1.792 1.27 0.483-0.643 0.886-1.448 1.177-2.366h1.498c-0.252 0.394-0.547 0.761-0.883 1.096z"></path>
</symbol>
<symbol id="icon-earth" viewBox="0 0 16 16">
<title>earth</title>
<path class="path1" d="M8 0c-4.418 0-8 3.582-8 8s3.582 8 8 8 8-3.582 8-8-3.582-8-8-8zM8 15c-0.984 0-1.92-0.203-2.769-0.57l3.643-4.098c0.081-0.092 0.126-0.21 0.126-0.332v-1.5c0-0.276-0.224-0.5-0.5-0.5-1.765 0-3.628-1.835-3.646-1.854-0.094-0.094-0.221-0.146-0.354-0.146h-2c-0.276 0-0.5 0.224-0.5 0.5v3c0 0.189 0.107 0.363 0.276 0.447l1.724 0.862v2.936c-1.813-1.265-3-3.366-3-5.745 0-1.074 0.242-2.091 0.674-3h1.826c0.133 0 0.26-0.053 0.354-0.146l2-2c0.094-0.094 0.146-0.221 0.146-0.354v-1.21c0.634-0.189 1.305-0.29 2-0.29 1.1 0 2.141 0.254 3.067 0.706-0.065 0.055-0.128 0.112-0.188 0.172-0.567 0.567-0.879 1.32-0.879 2.121s0.312 1.555 0.879 2.121c0.569 0.569 1.332 0.879 2.119 0.879 0.049 0 0.099-0.001 0.149-0.004 0.216 0.809 0.605 2.917-0.131 5.818-0.007 0.027-0.011 0.055-0.013 0.082-1.271 1.298-3.042 2.104-5.002 2.104z"></path>
</symbol>
<symbol id="icon-link" viewBox="0 0 16 16">
<title>link</title>
<path class="path1" d="M6.879 9.934c-0.208 0-0.416-0.079-0.575-0.238-1.486-1.486-1.486-3.905 0-5.392l3-3c0.72-0.72 1.678-1.117 2.696-1.117s1.976 0.397 2.696 1.117c1.486 1.487 1.486 3.905 0 5.392l-1.371 1.371c-0.317 0.317-0.832 0.317-1.149 0s-0.317-0.832 0-1.149l1.371-1.371c0.853-0.853 0.853-2.241 0-3.094-0.413-0.413-0.963-0.641-1.547-0.641s-1.134 0.228-1.547 0.641l-3 3c-0.853 0.853-0.853 2.241 0 3.094 0.317 0.317 0.317 0.832 0 1.149-0.159 0.159-0.367 0.238-0.575 0.238z"></path>
<path class="path2" d="M4 15.813c-1.018 0-1.976-0.397-2.696-1.117-1.486-1.486-1.486-3.905 0-5.392l1.371-1.371c0.317-0.317 0.832-0.317 1.149 0s0.317 0.832 0 1.149l-1.371 1.371c-0.853 0.853-0.853 2.241 0 3.094 0.413 0.413 0.962 0.641 1.547 0.641s1.134-0.228 1.547-0.641l3-3c0.853-0.853 0.853-2.241 0-3.094-0.317-0.317-0.317-0.832 0-1.149s0.832-0.317 1.149 0c1.486 1.486 1.486 3.905 0 5.392l-3 3c-0.72 0.72-1.678 1.117-2.696 1.117z"></path>
</symbol>
<symbol id="icon-embed2" viewBox="0 0 20 16">
<title>embed2</title>
<path class="path1" d="M13 11.5l1.5 1.5 5-5-5-5-1.5 1.5 3.5 3.5z"></path>
<path class="path2" d="M7 4.5l-1.5-1.5-5 5 5 5 1.5-1.5-3.5-3.5z"></path>
<path class="path3" d="M10.958 2.352l1.085 0.296-3 11-1.085-0.296 3-11z"></path>
</symbol>
<symbol id="icon-share2" viewBox="0 0 16 16">
<title>share2</title>
<path class="path1" d="M13.5 11c-0.706 0-1.342 0.293-1.797 0.763l-6.734-3.367c0.021-0.129 0.032-0.261 0.032-0.396s-0.011-0.267-0.032-0.396l6.734-3.367c0.455 0.47 1.091 0.763 1.797 0.763 1.381 0 2.5-1.119 2.5-2.5s-1.119-2.5-2.5-2.5-2.5 1.119-2.5 2.5c0 0.135 0.011 0.267 0.031 0.396l-6.734 3.367c-0.455-0.47-1.091-0.763-1.797-0.763-1.381 0-2.5 1.119-2.5 2.5s1.119 2.5 2.5 2.5c0.706 0 1.343-0.293 1.797-0.763l6.734 3.367c-0.021 0.129-0.031 0.261-0.031 0.396 0 1.381 1.119 2.5 2.5 2.5s2.5-1.119 2.5-2.5c0-1.381-1.119-2.5-2.5-2.5z"></path>
</symbol>
<symbol id="icon-google-plus2" viewBox="0 0 16 16">
<title>google-plus2</title>
<path class="path1" d="M14.5 0h-13c-0.825 0-1.5 0.675-1.5 1.5v13c0 0.825 0.675 1.5 1.5 1.5h13c0.825 0 1.5-0.675 1.5-1.5v-13c0-0.825-0.675-1.5-1.5-1.5zM6 12c-2.212 0-4-1.787-4-4s1.788-4 4-4c1.081 0 1.984 0.394 2.681 1.047l-1.088 1.044c-0.297-0.284-0.816-0.616-1.594-0.616-1.366 0-2.481 1.131-2.481 2.525s1.116 2.525 2.481 2.525c1.584 0 2.178-1.137 2.269-1.725h-2.269v-1.372h3.778c0.034 0.2 0.063 0.4 0.063 0.663 0 2.287-1.531 3.909-3.841 3.909zM14 8h-1v1h-1v-1h-1v-1h1v-1h1v1h1v1z"></path>
</symbol>
<symbol id="icon-facebook2" viewBox="0 0 16 16">
<title>facebook2</title>
<path class="path1" d="M14.5 0h-13c-0.825 0-1.5 0.675-1.5 1.5v13c0 0.825 0.675 1.5 1.5 1.5h6.5v-7h-2v-2h2v-1c0-1.653 1.347-3 3-3h2v2h-2c-0.55 0-1 0.45-1 1v1h3l-0.5 2h-2.5v7h4.5c0.825 0 1.5-0.675 1.5-1.5v-13c0-0.825-0.675-1.5-1.5-1.5z"></path>
</symbol>
<symbol id="icon-whatsapp" viewBox="0 0 16 16">
<title>whatsapp</title>
<path class="path1" d="M13.641 2.325c-1.497-1.5-3.488-2.325-5.609-2.325-4.369 0-7.925 3.556-7.925 7.928 0 1.397 0.366 2.763 1.059 3.963l-1.125 4.109 4.203-1.103c1.159 0.631 2.463 0.966 3.787 0.966h0.003c0 0 0 0 0 0 4.369 0 7.928-3.556 7.928-7.928 0-2.119-0.825-4.109-2.322-5.609zM8.034 14.525v0c-1.184 0-2.344-0.319-3.356-0.919l-0.241-0.144-2.494 0.653 0.666-2.431-0.156-0.25c-0.663-1.047-1.009-2.259-1.009-3.506 0-3.634 2.956-6.591 6.594-6.591 1.759 0 3.416 0.688 4.659 1.931 1.244 1.247 1.928 2.9 1.928 4.662-0.003 3.637-2.959 6.594-6.591 6.594zM11.647 9.588c-0.197-0.1-1.172-0.578-1.353-0.644s-0.313-0.1-0.447 0.1c-0.131 0.197-0.512 0.644-0.628 0.778-0.116 0.131-0.231 0.15-0.428 0.050s-0.838-0.309-1.594-0.984c-0.588-0.525-0.987-1.175-1.103-1.372s-0.013-0.306 0.088-0.403c0.091-0.088 0.197-0.231 0.297-0.347s0.131-0.197 0.197-0.331c0.066-0.131 0.034-0.247-0.016-0.347s-0.447-1.075-0.609-1.472c-0.159-0.388-0.325-0.334-0.447-0.341-0.116-0.006-0.247-0.006-0.378-0.006s-0.347 0.050-0.528 0.247c-0.181 0.197-0.694 0.678-0.694 1.653s0.709 1.916 0.809 2.050c0.1 0.131 1.397 2.134 3.384 2.991 0.472 0.203 0.841 0.325 1.128 0.419 0.475 0.15 0.906 0.128 1.247 0.078 0.381-0.056 1.172-0.478 1.338-0.941s0.166-0.859 0.116-0.941c-0.047-0.088-0.178-0.137-0.378-0.238z"></path>
</symbol>
<symbol id="icon-twitter" viewBox="0 0 16 16">
<title>twitter</title>
<path class="path1" d="M16 3.538c-0.588 0.263-1.222 0.438-1.884 0.516 0.678-0.406 1.197-1.050 1.444-1.816-0.634 0.375-1.338 0.65-2.084 0.797-0.6-0.638-1.453-1.034-2.397-1.034-1.813 0-3.281 1.469-3.281 3.281 0 0.256 0.028 0.506 0.084 0.747-2.728-0.138-5.147-1.444-6.766-3.431-0.281 0.484-0.444 1.050-0.444 1.65 0 1.138 0.578 2.144 1.459 2.731-0.538-0.016-1.044-0.166-1.488-0.409 0 0.013 0 0.028 0 0.041 0 1.591 1.131 2.919 2.634 3.219-0.275 0.075-0.566 0.116-0.866 0.116-0.212 0-0.416-0.022-0.619-0.059 0.419 1.303 1.631 2.253 3.066 2.281-1.125 0.881-2.538 1.406-4.078 1.406-0.266 0-0.525-0.016-0.784-0.047 1.456 0.934 3.181 1.475 5.034 1.475 6.037 0 9.341-5.003 9.341-9.341 0-0.144-0.003-0.284-0.009-0.425 0.641-0.459 1.197-1.038 1.637-1.697z"></path>
</symbol>
<symbol id="icon-vk" viewBox="0 0 16 16">
<title>vk</title>
<path class="path1" d="M14.5 0h-13c-0.825 0-1.5 0.675-1.5 1.5v13c0 0.825 0.675 1.5 1.5 1.5h13c0.825 0 1.5-0.675 1.5-1.5v-13c0-0.825-0.675-1.5-1.5-1.5zM12.959 11.2l-1.463 0.022c0 0-0.316 0.063-0.728-0.222-0.547-0.375-1.063-1.353-1.466-1.225-0.406 0.128-0.394 1.006-0.394 1.006s0.003 0.188-0.091 0.287c-0.1 0.109-0.3 0.131-0.3 0.131h-0.653c0 0-1.444 0.088-2.716-1.238-1.388-1.444-2.612-4.309-2.612-4.309s-0.072-0.188 0.006-0.278c0.087-0.103 0.322-0.109 0.322-0.109l1.566-0.009c0 0 0.147 0.025 0.253 0.103 0.088 0.063 0.134 0.184 0.134 0.184s0.253 0.641 0.588 1.219c0.653 1.128 0.959 1.375 1.181 1.256 0.322-0.175 0.225-1.597 0.225-1.597s0.006-0.516-0.162-0.744c-0.131-0.178-0.378-0.231-0.484-0.244-0.088-0.013 0.056-0.216 0.244-0.309 0.281-0.138 0.778-0.147 1.366-0.141 0.456 0.003 0.591 0.034 0.769 0.075 0.541 0.131 0.356 0.634 0.356 1.841 0 0.388-0.069 0.931 0.209 1.109 0.119 0.078 0.412 0.012 1.147-1.234 0.347-0.591 0.609-1.284 0.609-1.284s0.056-0.125 0.144-0.178c0.091-0.053 0.213-0.037 0.213-0.037l1.647-0.009c0 0 0.494-0.059 0.575 0.166 0.084 0.234-0.184 0.781-0.856 1.678-1.103 1.472-1.228 1.334-0.309 2.184 0.875 0.813 1.056 1.209 1.088 1.259 0.356 0.6-0.406 0.647-0.406 0.647z"></path>
</symbol>
<symbol id="icon-rss2" viewBox="0 0 16 16">
<title>rss2</title>
<path class="path1" d="M14.5 0h-13c-0.825 0-1.5 0.675-1.5 1.5v13c0 0.825 0.675 1.5 1.5 1.5h13c0.825 0 1.5-0.675 1.5-1.5v-13c0-0.825-0.675-1.5-1.5-1.5zM4.359 12.988c-0.75 0-1.359-0.603-1.359-1.353 0-0.744 0.609-1.356 1.359-1.356 0.753 0 1.359 0.613 1.359 1.356 0 0.75-0.609 1.353-1.359 1.353zM7.772 13c0-1.278-0.497-2.481-1.397-3.381-0.903-0.903-2.1-1.4-3.375-1.4v-1.956c3.713 0 6.738 3.022 6.738 6.737h-1.966zM11.244 13c0-4.547-3.697-8.25-8.241-8.25v-1.956c5.625 0 10.203 4.581 10.203 10.206h-1.963z"></path>
</symbol>
</defs>
</svg>
